<?xml version="1.0" standalone="no"?>
<!DOCTYPE svg PUBLIC "-//W3C//DTD SVG 20010904//EN"
 "http://www.w3.org/TR/2001/REC-SVG-20010904/DTD/svg10.dtd">
<svg version="1.0" xmlns="http://www.w3.org/2000/svg"
 width="512.000000pt" height="512.000000pt" viewBox="0 0 512.000000 512.000000"
 preserveAspectRatio="xMidYMid meet">
<metadata>
Created by potrace 1.14, written by Peter Selinger 2001-2017
</metadata>
<g transform="translate(0.000000,512.000000) scale(0.100000,-0.100000)"
fill="#000000" stroke="none">
<path d="M2017 4615 c-22 -7 -50 -24 -64 -37 -55 -51 -53 -12 -53 -883 0 -898
-4 -848 68 -903 35 -27 38 -27 221 -32 l186 -5 3 -37 c5 -57 -14 -109 -61
-170 -104 -134 -100 -297 9 -418 135 -150 393 -128 500 42 77 121 65 274 -29
386 -41 48 -60 104 -55 160 l3 37 186 5 c183 5 186 5 221 32 72 55 68 5 68
903 0 883 3 835 -60 888 -17 15 -47 31 -68 37 -60 16 -1027 13 -1075 -5z m991
-169 c49 -25 57 -55 57 -215 l0 -146 -505 0 -505 0 0 146 c0 159 8 189 55 214
38 21 859 21 898 1z m-674 -618 c18 -25 21 -113 6 -152 -9 -26 -11 -26 -110
-26 -99 0 -101 0 -110 26 -15 39 -12 127 6 152 14 20 24 22 104 22 80 0 90 -2
104 -22z m330 0 c18 -25 21 -113 6 -152 -9 -26 -11 -26 -110 -26 -99 0 -101 0
-110 26 -15 39 -12 127 6 152 14 20 24 22 104 22 80 0 90 -2 104 -22z m330 0
c18 -25 21 -113 6 -152 -9 -26 -11 -26 -110 -26 -99 0 -101 0 -110 26 -15 39
-12 127 6 152 14 20 24 22 104 22 80 0 90 -2 104 -22z m-660 -340 c11 -15 16
-45 16 -85 0 -90 -15 -103 -120 -103 -105 0 -120 13 -120 103 0 97 11 107 120
107 80 0 90 -2 104 -22z m330 0 c11 -15 16 -45 16 -85 0 -90 -15 -103 -120
-103 -105 0 -120 13 -120 103 0 97 11 107 120 107 80 0 90 -2 104 -22z m330 0
c11 -15 16 -45 16 -85 0 -90 -15 -103 -120 -103 -105 0 -120 13 -120 103 0 97
11 107 120 107 80 0 90 -2 104 -22z m-664 -338 c16 -16 20 -33 20 -85 0 -92
-15 -105 -120 -105 -105 0 -120 13 -120 105 0 92 15 105 120 105 67 0 83 -3
100 -20z m330 0 c16 -16 20 -33 20 -85 0 -92 -15 -105 -120 -105 -105 0 -120
13 -120 105 0 92 15 105 120 105 67 0 83 -3 100 -20z m330 0 c16 -16 20 -33
20 -85 0 -92 -15 -105 -120 -105 -105 0 -120 13 -120 105 0 92 15 105 120 105
67 0 83 -3 100 -20z"/>
<path d="M1294 1759 c-18 -20 -19 -45 -19 -626 l0 -605 24 -19 c23 -18 57 -19
1261 -19 1204 0 1238 1 1261 19 l24 19 0 605 c0 581 -1 606 -19 626 -19 21
-24 21 -482 21 -265 0 -473 -4 -487 -9 -39 -15 -41 -42 -10 -113 39 -90 39
-199 0 -280 -86 -176 -308 -231 -474 -117 -57 39 -100 104 -119 181 -20 77
-14 138 22 217 29 67 26 97 -13 112 -14 5 -222 9 -487 9 -458 0 -463 0 -482
-21z"/>
</g>
</svg>
